<?xml version="1.0" encoding="utf-8"?>
<!-- Generator: Adobe Illustrator 19.2.1, SVG Export Plug-In . SVG Version: 6.00 Build 0)  -->
<svg version="1.1" id="Layer_1" xmlns="http://www.w3.org/2000/svg" xmlns:xlink="http://www.w3.org/1999/xlink" x="0px" y="0px"
	 width="585.4px" height="279.3px" viewBox="0 0 585.4 279.3" style="enable-background:new 0 0 585.4 279.3;" xml:space="preserve"
	>
<style type="text/css">
	.st0{fill:#ED1B5D;}
</style>
<g>
	<path class="st0" d="M450.9,256.9l0.3-0.2c3.6,2.5,7.1,4.9,10.8,7.3c30.8-22.4,57.9-46.2,81.1-70.3c-2.4-1.4-4.7-2.8-7.1-4.2
		c18.6-17.8,35.2-36.1,49.4-54.7v-26.7c-20.2,23.2-44.4,45.6-72.1,66.7l-0.6,0.4l0.6,0.4c2.5,1.7,5,3.3,7.4,4.9
		c-25.8,21.6-55.5,42.6-88.7,61.9c-3.8-2.8-7.6-5.7-11.4-8.6l-0.3-0.2l-0.3,0.2c-33.3,17.4-68.8,32.5-105.8,45.1l-0.8,0.3l0.1,0.1
		h100.9C427,272.2,439.1,264.7,450.9,256.9z"/>
	<path class="st0" d="M516.5,279.3h47.1c7.7-8.2,14.9-16.4,21.8-24.7v-53c-3.3,3.4-6.6,6.8-10,10.3l-0.5,0.5l0.7,0.3
		c2.7,1.3,5.3,2.6,8,3.9C564,237.8,541.6,258.9,516.5,279.3z"/>
	<path class="st0" d="M291.1,258.1c-4.3-4.2-8.5-8.6-12.8-12.9c36.6-11.1,71.8-24.9,104.9-41l0.3-0.1c3.2,2.9,6.4,5.8,9.7,8.7
		c33.5-18.2,63.5-38.2,89.6-59.1c-2.2-1.7-4.3-3.4-6.5-5.1c30-21.9,55.9-45.5,76.9-70.1l0,0c1,0.8,2,1.5,3,2.3
		c11.7-14.9,21.4-29.8,29.1-44.3V23.9c-10.4,15.8-23.7,31.9-39.7,48c-1.2-0.9-2.3-1.8-3.5-2.7l-0.3-0.3l-0.3,0.3
		c-24.3,22.2-53.1,43-85.8,61.7l-0.6,0.4l0.5,0.5c2.2,2,4.5,3.9,6.7,5.8c-28.4,18.1-60.6,34.9-96,49.8c-3.4-3.3-6.8-6.6-10.2-10
		l-0.2-0.2l-0.3,0.1c-35.2,12.9-72.5,23.3-110.7,30.9l-0.9,0.2l0.6,0.7c4.1,4.8,8.4,9.7,12.7,14.5c-36.3,9-74.9,15.8-115.5,19.9
		c-5.2-6.7-10.4-13.5-15.3-20.4l-0.2-0.2l-0.3,0c-40.9,2.1-82.9,1.2-125-2.6l-1-0.1l0.5,0.9c12.1,19.7,25,39.2,38.5,57.9l0.2,0.2
		l0.3,0c41.8,0.1,83.3-2.7,123.3-8.5l0.3-0.1c2.4,2.9,4.8,5.7,7.3,8.6h50.2C245.1,273.2,268.6,266.1,291.1,258.1z"/>
	<path class="st0" d="M472.1,0h-0.4c0.1,0.1,0.1,0.1,0.2,0.2C472,0.1,472.1,0.1,472.1,0z"/>
</g>
</svg>
